<mxfile host="app.diagrams.net" modified="2023-08-19T01:06:42.333Z" agent="Mozilla/5.0 (Windows NT 10.0; Win64; x64) AppleWebKit/537.36 (KHTML, like Gecko) Chrome/116.0.0.0 Safari/537.36" etag="tH1zmllafj5VltS14DLZ" version="21.6.8" type="device">
  <diagram name="Página-1" id="uzq5SCFMSYqolHmujfpS">
    <mxGraphModel dx="1087" dy="908" grid="1" gridSize="10" guides="1" tooltips="1" connect="1" arrows="1" fold="1" page="1" pageScale="1" pageWidth="827" pageHeight="1169" math="0" shadow="0">
      <root>
        <mxCell id="0" />
        <mxCell id="1" parent="0" />
        <mxCell id="U-VpSM7jk65UTQXC_YYv-2" value="&lt;div&gt;La cadena de alquiler de peliculas BlockBuster necesita un sistema para la gestión de sus transacciones. Sabemos que la cadena tiene locales cada uno de los locales tiene direccion (compuesta por calle, altura y ciudad) y su propia lista de clientes. De cada cliente sabemos el nobmre, apellido y direccion y un identificador único de numero de cliente, compuesto por 6 números y 2 letras.&lt;/div&gt;&lt;div&gt;&lt;br&gt;&lt;/div&gt;&lt;div&gt;Cada local tiene una lista de peliculas sin prestar y una de prestamos. De cada prestamo sabemos que hay 1 cliente y 1 pelicula, como tambien una fecha de prestamo y una cantidad de días. Ademas de cada pelicula sabemos el titulo, el género (puede ser accion drama o suspenso) y la duracion expresada en mins.&amp;nbsp;&lt;/div&gt;&lt;div&gt;&lt;br&gt;&lt;/div&gt;&lt;div&gt;Realizar el diagrama UML y la implementacion en codigo.&lt;/div&gt;" style="rounded=0;whiteSpace=wrap;html=1;" vertex="1" parent="1">
          <mxGeometry x="120" y="10" width="560" height="160" as="geometry" />
        </mxCell>
        <mxCell id="U-VpSM7jk65UTQXC_YYv-7" value="Tienda" style="swimlane;fontStyle=0;childLayout=stackLayout;horizontal=1;startSize=26;fillColor=none;horizontalStack=0;resizeParent=1;resizeParentMax=0;resizeLast=0;collapsible=1;marginBottom=0;whiteSpace=wrap;html=1;" vertex="1" parent="1">
          <mxGeometry x="120" y="340" width="180" height="52" as="geometry" />
        </mxCell>
        <mxCell id="U-VpSM7jk65UTQXC_YYv-8" value="- Nombre: string&amp;nbsp;" style="text;strokeColor=none;fillColor=none;align=left;verticalAlign=top;spacingLeft=4;spacingRight=4;overflow=hidden;rotatable=0;points=[[0,0.5],[1,0.5]];portConstraint=eastwest;whiteSpace=wrap;html=1;" vertex="1" parent="U-VpSM7jk65UTQXC_YYv-7">
          <mxGeometry y="26" width="180" height="26" as="geometry" />
        </mxCell>
        <mxCell id="U-VpSM7jk65UTQXC_YYv-19" value="Cadena" style="swimlane;fontStyle=0;childLayout=stackLayout;horizontal=1;startSize=26;fillColor=none;horizontalStack=0;resizeParent=1;resizeParentMax=0;resizeLast=0;collapsible=1;marginBottom=0;whiteSpace=wrap;html=1;" vertex="1" parent="1">
          <mxGeometry x="310" y="190" width="180" height="52" as="geometry" />
        </mxCell>
        <mxCell id="U-VpSM7jk65UTQXC_YYv-25" value="- Nombre: string" style="text;strokeColor=none;fillColor=none;align=left;verticalAlign=top;spacingLeft=4;spacingRight=4;overflow=hidden;rotatable=0;points=[[0,0.5],[1,0.5]];portConstraint=eastwest;whiteSpace=wrap;html=1;" vertex="1" parent="U-VpSM7jk65UTQXC_YYv-19">
          <mxGeometry y="26" width="180" height="26" as="geometry" />
        </mxCell>
        <mxCell id="U-VpSM7jk65UTQXC_YYv-26" value="" style="endArrow=open;endFill=1;endSize=12;html=1;rounded=0;" edge="1" parent="1" source="U-VpSM7jk65UTQXC_YYv-19" target="U-VpSM7jk65UTQXC_YYv-7">
          <mxGeometry width="160" relative="1" as="geometry">
            <mxPoint x="310" y="230" as="sourcePoint" />
            <mxPoint x="470" y="230" as="targetPoint" />
          </mxGeometry>
        </mxCell>
        <mxCell id="U-VpSM7jk65UTQXC_YYv-28" value="*&lt;br&gt;" style="edgeLabel;html=1;align=center;verticalAlign=middle;resizable=0;points=[];" vertex="1" connectable="0" parent="U-VpSM7jk65UTQXC_YYv-26">
          <mxGeometry x="0.8448" y="-3" relative="1" as="geometry">
            <mxPoint x="-6" y="-10" as="offset" />
          </mxGeometry>
        </mxCell>
        <mxCell id="U-VpSM7jk65UTQXC_YYv-106" value="- Locales: List&amp;lt;Tienda&amp;gt;" style="edgeLabel;html=1;align=center;verticalAlign=middle;resizable=0;points=[];" vertex="1" connectable="0" parent="U-VpSM7jk65UTQXC_YYv-26">
          <mxGeometry x="-0.101" y="-1" relative="1" as="geometry">
            <mxPoint as="offset" />
          </mxGeometry>
        </mxCell>
        <mxCell id="U-VpSM7jk65UTQXC_YYv-30" value="Prestamo" style="swimlane;fontStyle=1;align=center;verticalAlign=top;childLayout=stackLayout;horizontal=1;startSize=26;horizontalStack=0;resizeParent=1;resizeParentMax=0;resizeLast=0;collapsible=1;marginBottom=0;whiteSpace=wrap;html=1;" vertex="1" parent="1">
          <mxGeometry x="575" y="298" width="160" height="58" as="geometry" />
        </mxCell>
        <mxCell id="U-VpSM7jk65UTQXC_YYv-31" value="- CantDias: int" style="text;strokeColor=none;fillColor=none;align=left;verticalAlign=top;spacingLeft=4;spacingRight=4;overflow=hidden;rotatable=0;points=[[0,0.5],[1,0.5]];portConstraint=eastwest;whiteSpace=wrap;html=1;" vertex="1" parent="U-VpSM7jk65UTQXC_YYv-30">
          <mxGeometry y="26" width="160" height="24" as="geometry" />
        </mxCell>
        <mxCell id="U-VpSM7jk65UTQXC_YYv-32" value="" style="line;strokeWidth=1;fillColor=none;align=left;verticalAlign=middle;spacingTop=-1;spacingLeft=3;spacingRight=3;rotatable=0;labelPosition=right;points=[];portConstraint=eastwest;strokeColor=inherit;" vertex="1" parent="U-VpSM7jk65UTQXC_YYv-30">
          <mxGeometry y="50" width="160" height="8" as="geometry" />
        </mxCell>
        <mxCell id="U-VpSM7jk65UTQXC_YYv-37" value="Pelicula" style="swimlane;fontStyle=1;align=center;verticalAlign=top;childLayout=stackLayout;horizontal=1;startSize=26;horizontalStack=0;resizeParent=1;resizeParentMax=0;resizeLast=0;collapsible=1;marginBottom=0;whiteSpace=wrap;html=1;" vertex="1" parent="1">
          <mxGeometry x="90" y="583" width="160" height="82" as="geometry" />
        </mxCell>
        <mxCell id="U-VpSM7jk65UTQXC_YYv-38" value="&lt;span style=&quot;color: rgb(0, 0, 0); font-family: Helvetica; font-size: 12px; font-style: normal; font-variant-ligatures: normal; font-variant-caps: normal; font-weight: 400; letter-spacing: normal; orphans: 2; text-align: left; text-indent: 0px; text-transform: none; widows: 2; word-spacing: 0px; -webkit-text-stroke-width: 0px; background-color: rgb(251, 251, 251); text-decoration-thickness: initial; text-decoration-style: initial; text-decoration-color: initial; float: none; display: inline !important;&quot;&gt;- Titulo: string&lt;/span&gt;" style="text;strokeColor=none;fillColor=none;align=left;verticalAlign=top;spacingLeft=4;spacingRight=4;overflow=hidden;rotatable=0;points=[[0,0.5],[1,0.5]];portConstraint=eastwest;whiteSpace=wrap;html=1;" vertex="1" parent="U-VpSM7jk65UTQXC_YYv-37">
          <mxGeometry y="26" width="160" height="24" as="geometry" />
        </mxCell>
        <mxCell id="U-VpSM7jk65UTQXC_YYv-40" value="&lt;span style=&quot;color: rgb(0, 0, 0); font-family: Helvetica; font-size: 12px; font-style: normal; font-variant-ligatures: normal; font-variant-caps: normal; font-weight: 400; letter-spacing: normal; orphans: 2; text-align: left; text-indent: 0px; text-transform: none; widows: 2; word-spacing: 0px; -webkit-text-stroke-width: 0px; background-color: rgb(251, 251, 251); text-decoration-thickness: initial; text-decoration-style: initial; text-decoration-color: initial; float: none; display: inline !important;&quot;&gt;- Duracion: int&lt;/span&gt;" style="text;strokeColor=none;fillColor=none;align=left;verticalAlign=top;spacingLeft=4;spacingRight=4;overflow=hidden;rotatable=0;points=[[0,0.5],[1,0.5]];portConstraint=eastwest;whiteSpace=wrap;html=1;" vertex="1" parent="U-VpSM7jk65UTQXC_YYv-37">
          <mxGeometry y="50" width="160" height="24" as="geometry" />
        </mxCell>
        <mxCell id="U-VpSM7jk65UTQXC_YYv-42" value="" style="line;strokeWidth=1;fillColor=none;align=left;verticalAlign=middle;spacingTop=-1;spacingLeft=3;spacingRight=3;rotatable=0;labelPosition=right;points=[];portConstraint=eastwest;strokeColor=inherit;" vertex="1" parent="U-VpSM7jk65UTQXC_YYv-37">
          <mxGeometry y="74" width="160" height="8" as="geometry" />
        </mxCell>
        <mxCell id="U-VpSM7jk65UTQXC_YYv-51" value="&lt;b&gt;Genero&lt;/b&gt;" style="swimlane;fontStyle=0;childLayout=stackLayout;horizontal=1;startSize=26;fillColor=none;horizontalStack=0;resizeParent=1;resizeParentMax=0;resizeLast=0;collapsible=1;marginBottom=0;whiteSpace=wrap;html=1;" vertex="1" parent="1">
          <mxGeometry x="190" y="800" width="140" height="104" as="geometry" />
        </mxCell>
        <mxCell id="U-VpSM7jk65UTQXC_YYv-52" value="- ACCION" style="text;strokeColor=none;fillColor=none;align=left;verticalAlign=top;spacingLeft=4;spacingRight=4;overflow=hidden;rotatable=0;points=[[0,0.5],[1,0.5]];portConstraint=eastwest;whiteSpace=wrap;html=1;" vertex="1" parent="U-VpSM7jk65UTQXC_YYv-51">
          <mxGeometry y="26" width="140" height="26" as="geometry" />
        </mxCell>
        <mxCell id="U-VpSM7jk65UTQXC_YYv-53" value="- DRAMA" style="text;strokeColor=none;fillColor=none;align=left;verticalAlign=top;spacingLeft=4;spacingRight=4;overflow=hidden;rotatable=0;points=[[0,0.5],[1,0.5]];portConstraint=eastwest;whiteSpace=wrap;html=1;" vertex="1" parent="U-VpSM7jk65UTQXC_YYv-51">
          <mxGeometry y="52" width="140" height="26" as="geometry" />
        </mxCell>
        <mxCell id="U-VpSM7jk65UTQXC_YYv-54" value="- SUSPENSO" style="text;strokeColor=none;fillColor=none;align=left;verticalAlign=top;spacingLeft=4;spacingRight=4;overflow=hidden;rotatable=0;points=[[0,0.5],[1,0.5]];portConstraint=eastwest;whiteSpace=wrap;html=1;" vertex="1" parent="U-VpSM7jk65UTQXC_YYv-51">
          <mxGeometry y="78" width="140" height="26" as="geometry" />
        </mxCell>
        <mxCell id="U-VpSM7jk65UTQXC_YYv-39" value="&lt;span style=&quot;color: rgb(0, 0, 0); font-family: Helvetica; font-size: 12px; font-style: normal; font-variant-ligatures: normal; font-variant-caps: normal; font-weight: 400; letter-spacing: normal; orphans: 2; text-align: left; text-indent: 0px; text-transform: none; widows: 2; word-spacing: 0px; -webkit-text-stroke-width: 0px; background-color: rgb(251, 251, 251); text-decoration-thickness: initial; text-decoration-style: initial; text-decoration-color: initial; float: none; display: inline !important;&quot;&gt;- genero&lt;/span&gt;" style="text;strokeColor=none;fillColor=none;align=left;verticalAlign=top;spacingLeft=4;spacingRight=4;overflow=hidden;rotatable=0;points=[[0,0.5],[1,0.5]];portConstraint=eastwest;whiteSpace=wrap;html=1;" vertex="1" parent="1">
          <mxGeometry x="200" y="670" width="60" height="24" as="geometry" />
        </mxCell>
        <mxCell id="U-VpSM7jk65UTQXC_YYv-55" value="" style="endArrow=open;endFill=1;endSize=12;html=1;rounded=0;" edge="1" parent="1" source="U-VpSM7jk65UTQXC_YYv-37" target="U-VpSM7jk65UTQXC_YYv-51">
          <mxGeometry width="160" relative="1" as="geometry">
            <mxPoint x="300" y="590" as="sourcePoint" />
            <mxPoint x="460" y="590" as="targetPoint" />
          </mxGeometry>
        </mxCell>
        <mxCell id="U-VpSM7jk65UTQXC_YYv-56" value="Cliente" style="swimlane;fontStyle=1;align=center;verticalAlign=top;childLayout=stackLayout;horizontal=1;startSize=26;horizontalStack=0;resizeParent=1;resizeParentMax=0;resizeLast=0;collapsible=1;marginBottom=0;whiteSpace=wrap;html=1;" vertex="1" parent="1">
          <mxGeometry x="720" y="543" width="160" height="82" as="geometry">
            <mxRectangle x="590" y="490" width="80" height="30" as="alternateBounds" />
          </mxGeometry>
        </mxCell>
        <mxCell id="U-VpSM7jk65UTQXC_YYv-57" value="- Nombre: string" style="text;strokeColor=none;fillColor=none;align=left;verticalAlign=top;spacingLeft=4;spacingRight=4;overflow=hidden;rotatable=0;points=[[0,0.5],[1,0.5]];portConstraint=eastwest;whiteSpace=wrap;html=1;" vertex="1" parent="U-VpSM7jk65UTQXC_YYv-56">
          <mxGeometry y="26" width="160" height="24" as="geometry" />
        </mxCell>
        <mxCell id="U-VpSM7jk65UTQXC_YYv-58" value="&lt;span style=&quot;color: rgb(0, 0, 0); font-family: Helvetica; font-size: 12px; font-style: normal; font-variant-ligatures: normal; font-variant-caps: normal; font-weight: 400; letter-spacing: normal; orphans: 2; text-align: left; text-indent: 0px; text-transform: none; widows: 2; word-spacing: 0px; -webkit-text-stroke-width: 0px; background-color: rgb(251, 251, 251); text-decoration-thickness: initial; text-decoration-style: initial; text-decoration-color: initial; float: none; display: inline !important;&quot;&gt;- Apellido: string&amp;nbsp;&lt;/span&gt;" style="text;strokeColor=none;fillColor=none;align=left;verticalAlign=top;spacingLeft=4;spacingRight=4;overflow=hidden;rotatable=0;points=[[0,0.5],[1,0.5]];portConstraint=eastwest;whiteSpace=wrap;html=1;" vertex="1" parent="U-VpSM7jk65UTQXC_YYv-56">
          <mxGeometry y="50" width="160" height="24" as="geometry" />
        </mxCell>
        <mxCell id="U-VpSM7jk65UTQXC_YYv-61" value="" style="line;strokeWidth=1;fillColor=none;align=left;verticalAlign=middle;spacingTop=-1;spacingLeft=3;spacingRight=3;rotatable=0;labelPosition=right;points=[];portConstraint=eastwest;strokeColor=inherit;" vertex="1" parent="U-VpSM7jk65UTQXC_YYv-56">
          <mxGeometry y="74" width="160" height="8" as="geometry" />
        </mxCell>
        <mxCell id="U-VpSM7jk65UTQXC_YYv-63" value="&lt;b&gt;Date&lt;/b&gt;" style="swimlane;fontStyle=0;childLayout=stackLayout;horizontal=1;startSize=26;fillColor=none;horizontalStack=0;resizeParent=1;resizeParentMax=0;resizeLast=0;collapsible=1;marginBottom=0;whiteSpace=wrap;html=1;" vertex="1" parent="1">
          <mxGeometry x="890" y="420" width="140" height="104" as="geometry" />
        </mxCell>
        <mxCell id="U-VpSM7jk65UTQXC_YYv-64" value="- Dia: int" style="text;strokeColor=none;fillColor=none;align=left;verticalAlign=top;spacingLeft=4;spacingRight=4;overflow=hidden;rotatable=0;points=[[0,0.5],[1,0.5]];portConstraint=eastwest;whiteSpace=wrap;html=1;" vertex="1" parent="U-VpSM7jk65UTQXC_YYv-63">
          <mxGeometry y="26" width="140" height="26" as="geometry" />
        </mxCell>
        <mxCell id="U-VpSM7jk65UTQXC_YYv-65" value="- Mes: int" style="text;strokeColor=none;fillColor=none;align=left;verticalAlign=top;spacingLeft=4;spacingRight=4;overflow=hidden;rotatable=0;points=[[0,0.5],[1,0.5]];portConstraint=eastwest;whiteSpace=wrap;html=1;" vertex="1" parent="U-VpSM7jk65UTQXC_YYv-63">
          <mxGeometry y="52" width="140" height="26" as="geometry" />
        </mxCell>
        <mxCell id="U-VpSM7jk65UTQXC_YYv-66" value="- Año: int" style="text;strokeColor=none;fillColor=none;align=left;verticalAlign=top;spacingLeft=4;spacingRight=4;overflow=hidden;rotatable=0;points=[[0,0.5],[1,0.5]];portConstraint=eastwest;whiteSpace=wrap;html=1;" vertex="1" parent="U-VpSM7jk65UTQXC_YYv-63">
          <mxGeometry y="78" width="140" height="26" as="geometry" />
        </mxCell>
        <mxCell id="U-VpSM7jk65UTQXC_YYv-34" value="&lt;span style=&quot;color: rgb(0, 0, 0); font-family: Helvetica; font-size: 12px; font-style: normal; font-variant-ligatures: normal; font-variant-caps: normal; font-weight: 400; letter-spacing: normal; orphans: 2; text-align: left; text-indent: 0px; text-transform: none; widows: 2; word-spacing: 0px; -webkit-text-stroke-width: 0px; background-color: rgb(251, 251, 251); text-decoration-thickness: initial; text-decoration-style: initial; text-decoration-color: initial; float: none; display: inline !important;&quot;&gt;- FechaPrest: Date&lt;/span&gt;" style="text;strokeColor=none;fillColor=none;align=left;verticalAlign=top;spacingLeft=4;spacingRight=4;overflow=hidden;rotatable=0;points=[[0,0.5],[1,0.5]];portConstraint=eastwest;whiteSpace=wrap;html=1;" vertex="1" parent="1">
          <mxGeometry x="740" y="344" width="120" height="24" as="geometry" />
        </mxCell>
        <mxCell id="U-VpSM7jk65UTQXC_YYv-69" value="&lt;b&gt;Direccion&lt;/b&gt;" style="swimlane;fontStyle=0;childLayout=stackLayout;horizontal=1;startSize=26;fillColor=none;horizontalStack=0;resizeParent=1;resizeParentMax=0;resizeLast=0;collapsible=1;marginBottom=0;whiteSpace=wrap;html=1;" vertex="1" parent="1">
          <mxGeometry x="380" y="626" width="140" height="104" as="geometry" />
        </mxCell>
        <mxCell id="U-VpSM7jk65UTQXC_YYv-70" value="- Calle: string" style="text;strokeColor=none;fillColor=none;align=left;verticalAlign=top;spacingLeft=4;spacingRight=4;overflow=hidden;rotatable=0;points=[[0,0.5],[1,0.5]];portConstraint=eastwest;whiteSpace=wrap;html=1;" vertex="1" parent="U-VpSM7jk65UTQXC_YYv-69">
          <mxGeometry y="26" width="140" height="26" as="geometry" />
        </mxCell>
        <mxCell id="U-VpSM7jk65UTQXC_YYv-71" value="- Altura: int" style="text;strokeColor=none;fillColor=none;align=left;verticalAlign=top;spacingLeft=4;spacingRight=4;overflow=hidden;rotatable=0;points=[[0,0.5],[1,0.5]];portConstraint=eastwest;whiteSpace=wrap;html=1;" vertex="1" parent="U-VpSM7jk65UTQXC_YYv-69">
          <mxGeometry y="52" width="140" height="26" as="geometry" />
        </mxCell>
        <mxCell id="U-VpSM7jk65UTQXC_YYv-72" value="- Ciudad: string" style="text;strokeColor=none;fillColor=none;align=left;verticalAlign=top;spacingLeft=4;spacingRight=4;overflow=hidden;rotatable=0;points=[[0,0.5],[1,0.5]];portConstraint=eastwest;whiteSpace=wrap;html=1;" vertex="1" parent="U-VpSM7jk65UTQXC_YYv-69">
          <mxGeometry y="78" width="140" height="26" as="geometry" />
        </mxCell>
        <mxCell id="U-VpSM7jk65UTQXC_YYv-59" value="&lt;span style=&quot;color: rgb(0, 0, 0); font-family: Helvetica; font-size: 12px; font-style: normal; font-variant-ligatures: normal; font-variant-caps: normal; font-weight: 400; letter-spacing: normal; orphans: 2; text-align: left; text-indent: 0px; text-transform: none; widows: 2; word-spacing: 0px; -webkit-text-stroke-width: 0px; background-color: rgb(251, 251, 251); text-decoration-thickness: initial; text-decoration-style: initial; text-decoration-color: initial; float: none; display: inline !important;&quot;&gt;- Direccion: Direccion&lt;/span&gt;" style="text;strokeColor=none;fillColor=none;align=left;verticalAlign=top;spacingLeft=4;spacingRight=4;overflow=hidden;rotatable=0;points=[[0,0.5],[1,0.5]];portConstraint=eastwest;whiteSpace=wrap;html=1;" vertex="1" parent="1">
          <mxGeometry x="590" y="585" width="130" height="24" as="geometry" />
        </mxCell>
        <mxCell id="U-VpSM7jk65UTQXC_YYv-78" value="" style="endArrow=open;endFill=1;endSize=12;html=1;rounded=0;fontStyle=1" edge="1" parent="1" source="U-VpSM7jk65UTQXC_YYv-7" target="U-VpSM7jk65UTQXC_YYv-56">
          <mxGeometry width="160" relative="1" as="geometry">
            <mxPoint x="350" y="350" as="sourcePoint" />
            <mxPoint x="510" y="350" as="targetPoint" />
          </mxGeometry>
        </mxCell>
        <mxCell id="U-VpSM7jk65UTQXC_YYv-102" value="1" style="edgeLabel;html=1;align=center;verticalAlign=middle;resizable=0;points=[];" vertex="1" connectable="0" parent="U-VpSM7jk65UTQXC_YYv-78">
          <mxGeometry x="0.9462" relative="1" as="geometry">
            <mxPoint x="-8" y="-20" as="offset" />
          </mxGeometry>
        </mxCell>
        <mxCell id="U-VpSM7jk65UTQXC_YYv-10" value="- Clientes: List&amp;lt;Cliente&amp;gt;" style="text;strokeColor=none;fillColor=none;align=left;verticalAlign=top;spacingLeft=4;spacingRight=4;overflow=hidden;rotatable=0;points=[[0,0.5],[1,0.5]];portConstraint=eastwest;whiteSpace=wrap;html=1;" vertex="1" parent="1">
          <mxGeometry x="300" y="381" width="150" height="26" as="geometry" />
        </mxCell>
        <mxCell id="U-VpSM7jk65UTQXC_YYv-79" value="" style="endArrow=open;endFill=1;endSize=12;html=1;rounded=0;" edge="1" parent="1" source="U-VpSM7jk65UTQXC_YYv-7" target="U-VpSM7jk65UTQXC_YYv-37">
          <mxGeometry width="160" relative="1" as="geometry">
            <mxPoint x="310" y="431" as="sourcePoint" />
            <mxPoint x="730" y="568" as="targetPoint" />
          </mxGeometry>
        </mxCell>
        <mxCell id="U-VpSM7jk65UTQXC_YYv-101" value="1" style="edgeLabel;html=1;align=center;verticalAlign=middle;resizable=0;points=[];" vertex="1" connectable="0" parent="U-VpSM7jk65UTQXC_YYv-79">
          <mxGeometry x="0.7924" y="-1" relative="1" as="geometry">
            <mxPoint x="-8" as="offset" />
          </mxGeometry>
        </mxCell>
        <mxCell id="U-VpSM7jk65UTQXC_YYv-14" value="- PelSinPrest: List&amp;lt;Peliculas&amp;gt;" style="text;strokeColor=none;fillColor=none;align=left;verticalAlign=top;spacingLeft=4;spacingRight=4;overflow=hidden;rotatable=0;points=[[0,0.5],[1,0.5]];portConstraint=eastwest;whiteSpace=wrap;html=1;" vertex="1" parent="1">
          <mxGeometry x="30" y="426" width="180" height="26" as="geometry" />
        </mxCell>
        <mxCell id="U-VpSM7jk65UTQXC_YYv-80" value="" style="endArrow=open;endFill=1;endSize=12;html=1;rounded=0;" edge="1" parent="1" source="U-VpSM7jk65UTQXC_YYv-7" target="U-VpSM7jk65UTQXC_YYv-30">
          <mxGeometry width="160" relative="1" as="geometry">
            <mxPoint x="320" y="441" as="sourcePoint" />
            <mxPoint x="740" y="578" as="targetPoint" />
          </mxGeometry>
        </mxCell>
        <mxCell id="U-VpSM7jk65UTQXC_YYv-103" value="1" style="edgeLabel;html=1;align=center;verticalAlign=middle;resizable=0;points=[];" vertex="1" connectable="0" parent="U-VpSM7jk65UTQXC_YYv-80">
          <mxGeometry x="0.8437" y="2" relative="1" as="geometry">
            <mxPoint y="-10" as="offset" />
          </mxGeometry>
        </mxCell>
        <mxCell id="U-VpSM7jk65UTQXC_YYv-13" value="- Prestamos: List&amp;lt;Prestamo&amp;gt;" style="text;strokeColor=none;fillColor=none;align=left;verticalAlign=top;spacingLeft=4;spacingRight=4;overflow=hidden;rotatable=0;points=[[0,0.5],[1,0.5]];portConstraint=eastwest;whiteSpace=wrap;html=1;" vertex="1" parent="1">
          <mxGeometry x="295" y="318" width="180" height="26" as="geometry" />
        </mxCell>
        <mxCell id="U-VpSM7jk65UTQXC_YYv-81" value="" style="endArrow=open;endFill=1;endSize=12;html=1;rounded=0;" edge="1" parent="1" source="U-VpSM7jk65UTQXC_YYv-30" target="U-VpSM7jk65UTQXC_YYv-37">
          <mxGeometry width="160" relative="1" as="geometry">
            <mxPoint x="290" y="402" as="sourcePoint" />
            <mxPoint x="730" y="564" as="targetPoint" />
          </mxGeometry>
        </mxCell>
        <mxCell id="U-VpSM7jk65UTQXC_YYv-82" value="1" style="edgeLabel;html=1;align=center;verticalAlign=middle;resizable=0;points=[];" vertex="1" connectable="0" parent="U-VpSM7jk65UTQXC_YYv-81">
          <mxGeometry x="0.8807" y="1" relative="1" as="geometry">
            <mxPoint x="-11" y="-12" as="offset" />
          </mxGeometry>
        </mxCell>
        <mxCell id="U-VpSM7jk65UTQXC_YYv-35" value="&lt;span style=&quot;color: rgb(0, 0, 0); font-family: Helvetica; font-size: 12px; font-style: normal; font-variant-ligatures: normal; font-variant-caps: normal; font-weight: 400; letter-spacing: normal; orphans: 2; text-align: left; text-indent: 0px; text-transform: none; widows: 2; word-spacing: 0px; -webkit-text-stroke-width: 0px; background-color: rgb(251, 251, 251); text-decoration-thickness: initial; text-decoration-style: initial; text-decoration-color: initial; float: none; display: inline !important;&quot;&gt;- Pelicula: Pelicula&lt;/span&gt;" style="text;strokeColor=none;fillColor=none;align=left;verticalAlign=top;spacingLeft=4;spacingRight=4;overflow=hidden;rotatable=0;points=[[0,0.5],[1,0.5]];portConstraint=eastwest;whiteSpace=wrap;html=1;" vertex="1" parent="1">
          <mxGeometry x="490" y="381" width="110" height="24" as="geometry" />
        </mxCell>
        <mxCell id="U-VpSM7jk65UTQXC_YYv-83" value="" style="endArrow=open;endFill=1;endSize=12;html=1;rounded=0;" edge="1" parent="1" source="U-VpSM7jk65UTQXC_YYv-30" target="U-VpSM7jk65UTQXC_YYv-56">
          <mxGeometry width="160" relative="1" as="geometry">
            <mxPoint x="300" y="412" as="sourcePoint" />
            <mxPoint x="740" y="574" as="targetPoint" />
          </mxGeometry>
        </mxCell>
        <mxCell id="U-VpSM7jk65UTQXC_YYv-84" value="1" style="edgeLabel;html=1;align=center;verticalAlign=middle;resizable=0;points=[];" vertex="1" connectable="0" parent="U-VpSM7jk65UTQXC_YYv-83">
          <mxGeometry x="0.8062" y="1" relative="1" as="geometry">
            <mxPoint x="3" y="-3" as="offset" />
          </mxGeometry>
        </mxCell>
        <mxCell id="U-VpSM7jk65UTQXC_YYv-36" value="&lt;span style=&quot;color: rgb(0, 0, 0); font-family: Helvetica; font-size: 12px; font-style: normal; font-variant-ligatures: normal; font-variant-caps: normal; font-weight: 400; letter-spacing: normal; orphans: 2; text-align: left; text-indent: 0px; text-transform: none; widows: 2; word-spacing: 0px; -webkit-text-stroke-width: 0px; background-color: rgb(251, 251, 251); text-decoration-thickness: initial; text-decoration-style: initial; text-decoration-color: initial; float: none; display: inline !important;&quot;&gt;- Cliente: Cliente&lt;/span&gt;" style="text;strokeColor=none;fillColor=none;align=left;verticalAlign=top;spacingLeft=4;spacingRight=4;overflow=hidden;rotatable=0;points=[[0,0.5],[1,0.5]];portConstraint=eastwest;whiteSpace=wrap;html=1;" vertex="1" parent="1">
          <mxGeometry x="650" y="396" width="100" height="24" as="geometry" />
        </mxCell>
        <mxCell id="U-VpSM7jk65UTQXC_YYv-86" value="" style="endArrow=open;endFill=1;endSize=12;html=1;rounded=0;" edge="1" parent="1" source="U-VpSM7jk65UTQXC_YYv-30" target="U-VpSM7jk65UTQXC_YYv-63">
          <mxGeometry width="160" relative="1" as="geometry">
            <mxPoint x="310" y="422" as="sourcePoint" />
            <mxPoint x="750" y="584" as="targetPoint" />
          </mxGeometry>
        </mxCell>
        <mxCell id="U-VpSM7jk65UTQXC_YYv-87" value="1" style="edgeLabel;html=1;align=center;verticalAlign=middle;resizable=0;points=[];" vertex="1" connectable="0" parent="U-VpSM7jk65UTQXC_YYv-86">
          <mxGeometry x="0.8121" y="2" relative="1" as="geometry">
            <mxPoint x="-4" y="-9" as="offset" />
          </mxGeometry>
        </mxCell>
        <mxCell id="U-VpSM7jk65UTQXC_YYv-98" value="" style="endArrow=open;endFill=1;endSize=12;html=1;rounded=0;fontStyle=1" edge="1" parent="1" source="U-VpSM7jk65UTQXC_YYv-7" target="U-VpSM7jk65UTQXC_YYv-69">
          <mxGeometry width="160" relative="1" as="geometry">
            <mxPoint x="290" y="402" as="sourcePoint" />
            <mxPoint x="730" y="564" as="targetPoint" />
          </mxGeometry>
        </mxCell>
        <mxCell id="U-VpSM7jk65UTQXC_YYv-99" value="- Direccion: direccion" style="edgeLabel;html=1;align=center;verticalAlign=middle;resizable=0;points=[];" vertex="1" connectable="0" parent="U-VpSM7jk65UTQXC_YYv-98">
          <mxGeometry x="-0.1837" y="2" relative="1" as="geometry">
            <mxPoint x="-10" y="-15" as="offset" />
          </mxGeometry>
        </mxCell>
        <mxCell id="U-VpSM7jk65UTQXC_YYv-100" value="1" style="edgeLabel;html=1;align=center;verticalAlign=middle;resizable=0;points=[];" vertex="1" connectable="0" parent="U-VpSM7jk65UTQXC_YYv-98">
          <mxGeometry x="0.8586" y="2" relative="1" as="geometry">
            <mxPoint x="11" y="-8" as="offset" />
          </mxGeometry>
        </mxCell>
        <mxCell id="U-VpSM7jk65UTQXC_YYv-104" value="" style="endArrow=open;endFill=1;endSize=12;html=1;rounded=0;" edge="1" parent="1" source="U-VpSM7jk65UTQXC_YYv-56" target="U-VpSM7jk65UTQXC_YYv-69">
          <mxGeometry width="160" relative="1" as="geometry">
            <mxPoint x="660" y="670" as="sourcePoint" />
            <mxPoint x="820" y="670" as="targetPoint" />
          </mxGeometry>
        </mxCell>
        <mxCell id="U-VpSM7jk65UTQXC_YYv-105" value="1" style="edgeLabel;html=1;align=center;verticalAlign=middle;resizable=0;points=[];" vertex="1" connectable="0" parent="U-VpSM7jk65UTQXC_YYv-104">
          <mxGeometry x="0.8508" relative="1" as="geometry">
            <mxPoint y="-10" as="offset" />
          </mxGeometry>
        </mxCell>
      </root>
    </mxGraphModel>
  </diagram>
</mxfile>
